# xmcd CD database file
#
# Track frame offsets:
#	150
#	10610
#	26761
#	42005
#	57100
#	70688
#	83312
#	101038
#	114860
#	125711
#	139746
#	150697
#	172739
#	192109
#
# Disc length: 2832 seconds
#
# Revision: 3
# Processed by: cddbd v1.5.2PL0 Copyright (c) Steve Scherf et al.
# Submitted via: CDex 1.51
#
DISCID=a10b0e0e
DTITLE=ILLÉS - Illés '96
DYEAR=1996
DGENRE=Pop Rock
TTITLE0=Nyitány
TTITLE1=Kéglidal
TTITLE2=Légy Jó Kicsit Hozzám
TTITLE3=Az Utcán
TTITLE4=Még Fáj Minden Csók
TTITLE5=Ó, Kisleány
TTITLE6=Az Ész A Fontos, Nem A Haj
TTITLE7=Élünk És Meghalunk
TTITLE8=Sárika
TTITLE9=Szemétdomb
TTITLE10=A Legjobb Dobos A Világon
TTITLE11=Keresem A Szót
TTITLE12=Sárga Rózsa
TTITLE13=Kis Virág
EXTD=Hungaroton HCD 37870\n(P) 1996 YEAR: 1996
EXTT0=
EXTT1=
EXTT2=
EXTT3=
EXTT4=
EXTT5=
EXTT6=
EXTT7=
EXTT8=
EXTT9=
EXTT10=
EXTT11=
EXTT12=
EXTT13=
PLAYORDER=
